<?xml version="1.0" encoding="utf-8"?>
<!-- Generator: Adobe Illustrator 23.0.1, SVG Export Plug-In . SVG Version: 6.00 Build 0)  -->
<svg version="1.1" width='150px' height='150px' xmlns="http://www.w3.org/2000/svg" xmlns:xlink="http://www.w3.org/1999/xlink" x="0px" y="0px"
	 viewBox="0 0 150 150" style="enable-background:new 0 0 150 150;" xml:space="preserve">
<style type="text/css">
	.st0{fill:#2e2e2e;}
</style>
<g>
	<path class="st0" d="M108.02,113.24L108.02,113.24c2.18,1.34,4.6,1.98,6.99,1.98c4.49,0,8.89-2.26,11.41-6.36
		c1.87-3.04,2.45-6.63,1.62-10.1c-0.83-3.47-2.96-6.42-6-8.29c-3.04-1.87-6.63-2.45-10.1-1.62c-2.98,0.71-5.57,2.39-7.43,4.77
		L89.54,84.4l-1.57,2.55l14.97,9.21C100.08,102.24,102.18,109.64,108.02,113.24z M106.2,96.41c1.45-2.36,3.74-4.01,6.43-4.65
		c2.7-0.64,5.48-0.19,7.84,1.26c2.36,1.45,4.01,3.74,4.65,6.43c0.64,2.69,0.19,5.48-1.26,7.84c-3,4.87-9.39,6.39-14.27,3.4h0
		C104.73,107.68,103.2,101.28,106.2,96.41z"/>
	<path class="st0" d="M73.71,17.35l-5.4,16.72L71.16,35l5.4-16.73c0.88,0.18,1.78,0.28,2.67,0.28c2.09,0,4.16-0.5,6.08-1.48
		c3.18-1.63,5.53-4.4,6.63-7.79c0.99-3.08,0.84-6.33-0.41-9.28h-3.34c0.09,0.15,0.18,0.3,0.26,0.45c1.26,2.47,1.49,5.28,0.64,7.91
		c-0.85,2.64-2.68,4.78-5.14,6.04c-2.47,1.26-5.27,1.49-7.91,0.64c-5.44-1.76-8.44-7.61-6.68-13.05c0.23-0.71,0.53-1.37,0.89-1.99
		H66.9c-0.15,0.35-0.29,0.7-0.41,1.07C64.38,7.6,67.59,14.59,73.71,17.35z"/>
	<path class="st0" d="M142.35,23.27c0.05,0,0.11,0,0.16-0.01c0.5-0.05,0.94-0.35,1.17-0.8l5.24-10.08l1.07-0.41V8.77l-1.68,0.64
		L140.46,0h-3.91l9.52,11.38l-4.01,7.7L126.11,0h-3.91l19,22.73C141.49,23.08,141.91,23.27,142.35,23.27z"/>
	<path class="st0" d="M147.65,125.05l2.35,2.81v-4.68l-1.5-1.79c-0.32-0.39-0.82-0.59-1.32-0.53c-0.5,0.06-0.94,0.36-1.17,0.81
		L140.74,132l-12.4,4.42c-0.32,0.01-0.63,0.12-0.9,0.34c-0.03,0.02-0.04,0.05-0.07,0.07c-0.19,0.13-0.34,0.3-0.45,0.51l-5.48,10.29
		c-0.29,0.54-0.22,1.2,0.17,1.67l0.59,0.7h3.91l-1.55-1.85l4.07-7.63l7.92,9.48h3.91l-9.48-11.34l10.34-3.69l8.67,10.38v-4.68
		l-6.41-7.67L147.65,125.05z"/>
	<path class="st0" d="M118.08,42.29c-2.32-0.61-4.74-0.28-6.82,0.93c-2.07,1.21-3.55,3.15-4.16,5.48c-1.26,4.79,1.61,9.72,6.4,10.98
		c0.76,0.2,1.53,0.3,2.29,0.3c3.98,0,7.63-2.67,8.69-6.7C125.74,48.48,122.87,43.55,118.08,42.29z M121.58,52.5
		c-0.84,3.19-4.12,5.11-7.32,4.27c-3.19-0.84-5.11-4.12-4.27-7.32c0.41-1.55,1.39-2.84,2.77-3.65c0.93-0.54,1.96-0.82,3.01-0.82
		c0.51,0,1.03,0.07,1.53,0.2C120.51,46.03,122.42,49.31,121.58,52.5z"/>
	<path class="st0" d="M83.32,142.45c-3.4-1.1-7.02-0.8-10.2,0.82c-2.84,1.45-5.01,3.82-6.23,6.72h3.34
		c0.99-1.72,2.45-3.13,4.26-4.05c1.48-0.76,3.09-1.14,4.71-1.14c1.07,0,2.15,0.17,3.2,0.51c2.47,0.8,4.5,2.46,5.79,4.69h3.34
		c-0.13-0.31-0.26-0.62-0.41-0.92C89.49,145.91,86.72,143.55,83.32,142.45z"/>
	<path class="st0" d="M33.68,124.57c2.61,1.42,6.32,2.77,11,2.77c2.52,0,5.31-0.39,8.37-1.37c16.59-5.31,17.03-20.59,17.03-20.75
		c0.01-0.32-0.09-0.64-0.28-0.9c-0.09-0.13-2.32-3.19-6.63-5.57c-3.97-2.19-10.53-4.22-19.28-1.42
		c-16.79,5.37-17.22,20.61-17.23,20.76c-0.01,0.33,0.1,0.65,0.29,0.91C27.04,119.15,29.32,122.2,33.68,124.57z M44.8,100.2
		c13.2-4.23,20.65,3.56,22.24,5.48c-0.21,2.5-1.87,13.26-14.91,17.43c-13.19,4.22-20.81-3.55-22.44-5.47
		C29.9,115.13,31.6,104.43,44.8,100.2z"/>
	<path class="st0" d="M40.76,79.76c0.06,0,0.11,0,0.17-0.01c0.5-0.06,0.94-0.36,1.16-0.8l13.96-27.17c0.28-0.54,0.2-1.2-0.2-1.66
		l-7.61-8.83c-0.15-0.18-0.34-0.31-0.55-0.4c-0.03-0.02-0.05-0.04-0.08-0.05c-0.3-0.16-0.64-0.19-0.95-0.14l-13.07-1.59l-7.42-8.92
		c-0.32-0.39-0.81-0.59-1.32-0.53c-0.5,0.05-0.94,0.36-1.17,0.81L9.64,57.8c-0.29,0.57-0.19,1.25,0.24,1.71l8.17,8.65
		c0.01,0.01,0.02,0.02,0.04,0.03c0.1,0.1,0.22,0.2,0.36,0.27c0,0,0.01,0,0.01,0.01c0,0,0,0,0,0c0.14,0.07,0.28,0.11,0.43,0.14
		c0.02,0,0.03,0.01,0.05,0.01l13.35,1.93l7.33,8.68C39.9,79.57,40.32,79.76,40.76,79.76z M18.77,64.57l-5.99-6.34l12.52-24.38
		l5.71,6.87L18.77,64.57z M32.21,67.51l-10.78-1.56l12.23-23.81l10.9,1.32L32.21,67.51z M47.27,44.76l5.64,6.55L40.45,75.57
		l-5.6-6.63L47.27,44.76z"/>
	<path class="st0" d="M10.79,3.58L7.79,0H3.88L8.5,5.52L0,8.77v3.21l11.53-4.41c0.01,0,0.01-0.01,0.02-0.01
		c0.14-0.06,0.28-0.13,0.41-0.24c0,0,0,0,0,0c0,0,0,0,0.01-0.01c0.12-0.1,0.21-0.22,0.29-0.34c0.01-0.01,0.02-0.02,0.03-0.03L16.4,0
		h-3.49L10.79,3.58z"/>
	<path class="st0" d="M18.21,144.97L0,123.18v4.68l15.23,18.22L12.91,150h3.49l1.96-3.3C18.68,146.15,18.62,145.46,18.21,144.97z"/>
	<path class="st0" d="M137.56,57.19c0.18-0.27,0.26-0.59,0.25-0.91c-0.01-0.16-0.24-3.93-2.6-8.25c-2.17-3.98-6.62-9.21-15.5-11.55
		c-17.05-4.49-25.6,8.13-25.69,8.26c-0.18,0.27-0.27,0.6-0.24,0.93c0.01,0.16,0.29,3.95,2.69,8.29c2.21,4,6.71,9.25,15.58,11.59
		c2.51,0.66,4.84,0.94,6.98,0.94C131.27,66.48,137.49,57.3,137.56,57.19z M112.82,62.63c-13.4-3.53-15.64-14.17-15.99-16.67
		c1.53-2.01,8.72-10.12,22.11-6.59c13.39,3.53,15.5,14.08,15.82,16.57C133.25,57.89,125.96,66.09,112.82,62.63z"/>
	<polygon class="st0" points="0,145.35 3.88,150 7.79,150 0,140.68 	"/>
	<path class="st0" d="M44.25,119.68c1.29,0.67,2.69,1,4.11,1c0.92,0,1.85-0.14,2.75-0.43c4.72-1.51,7.33-6.58,5.82-11.3
		c-1.51-4.72-6.58-7.33-11.3-5.82c-2.29,0.73-4.15,2.31-5.25,4.45s-1.3,4.57-0.57,6.86S42.12,118.58,44.25,119.68z M43.05,108.94
		c0.73-1.42,1.97-2.47,3.5-2.96c0.6-0.19,1.22-0.29,1.82-0.29c2.53,0,4.89,1.62,5.71,4.16c1.01,3.15-0.73,6.52-3.88,7.53
		c-1.52,0.49-3.15,0.35-4.57-0.38s-2.47-1.97-2.96-3.5S42.31,110.37,43.05,108.94z"/>
</g>
</svg>
