<?xml version="1.0" encoding="utf-8"?>
<!-- Generator: Adobe Illustrator 23.0.1, SVG Export Plug-In . SVG Version: 6.00 Build 0)  -->
<svg version="1.1" width='150px' height='150px' xmlns="http://www.w3.org/2000/svg" xmlns:xlink="http://www.w3.org/1999/xlink" x="0px" y="0px"
	 viewBox="0 0 150 150" style="enable-background:new 0 0 150 150;" xml:space="preserve">
<style type="text/css">
	.st0{fill:#2e2e2e;}
</style>
<g>
	<path class="st0" d="M107.27,38.24l-5.76-3.19c-0.72-0.4-1.64-0.14-2.04,0.58l-8.53,15.36c-0.19,0.35-0.24,0.76-0.13,1.14
		s0.37,0.71,0.72,0.9l5.76,3.19c0.23,0.13,0.48,0.19,0.73,0.19c0.53,0,1.04-0.28,1.31-0.77l8.53-15.36
		c0.19-0.35,0.24-0.76,0.13-1.14S107.62,38.43,107.27,38.24z M97.43,52.87l-3.14-1.74l7.07-12.73l3.14,1.74L97.43,52.87z"/>
	<path class="st0" d="M136.3,12.79c0.23,0.13,0.48,0.19,0.74,0.19c0.34,0,0.68-0.12,0.95-0.34l9.51-7.82l2.5,1.02V2.6l-2.19-0.9
		c-0.51-0.21-1.09-0.12-1.52,0.23l-7.2,5.92L140.24,0h-3.03l-1.65,11.27C135.47,11.88,135.76,12.48,136.3,12.79z"/>
	<path class="st0" d="M62.17,23.35c1.89,2.53,4.8,3.87,7.74,3.87c2.01,0,4.04-0.62,5.77-1.92c2.06-1.54,3.4-3.8,3.77-6.35
		c0.11-0.77,0.13-1.55,0.06-2.31c0.71,0.28,1.45,0.48,2.23,0.6c2.55,0.37,5.09-0.28,7.16-1.82c4.26-3.19,5.14-9.25,1.95-13.51
		C90.32,1.2,89.7,0.57,89.03,0h-5.75c2.12,0.88,3.95,2.08,5.16,3.7c2.2,2.94,1.59,7.11-1.34,9.31c-1.42,1.06-3.18,1.51-4.93,1.26
		c-1.76-0.25-3.31-1.18-4.38-2.6c-0.24-0.32-0.59-0.53-0.99-0.59c-0.4-0.06-0.79,0.05-1.11,0.28l-0.16,0.12
		c-0.32,0.24-0.53,0.59-0.59,0.99s0.05,0.79,0.28,1.11c1.06,1.42,1.51,3.18,1.26,4.93c-0.25,1.76-1.18,3.31-2.6,4.38
		c-2.94,2.2-7.11,1.59-9.31-1.34C61.15,16.98,62.97,6.38,64.66,0h-3.09C59.97,6.24,57.91,17.66,62.17,23.35z"/>
	<path class="st0" d="M126.87,35.24c-1.64-1.57-4.31-0.35-5.03,0.02c-4.47,1.76-10,5.64-10.23,5.8c-0.18,0.13-0.34,0.3-0.45,0.5
		l-8.62,15.56c-0.19,0.35-0.24,0.76-0.13,1.14c0.11,0.38,0.37,0.71,0.71,0.9l14.95,8.28c0.23,0.13,0.48,0.19,0.73,0.19
		c0.24,0,0.47-0.06,0.69-0.17c0.34-0.17,8.25-4.3,11.59-8.68c2.93-3.84,2.98-4.9,2.78-5.66c-0.12-0.45-0.41-0.82-0.8-1.03
		l-10.97-6.08l4.73-5.58C127.83,39.29,128.67,36.96,126.87,35.24z M124.56,38.48l-5.93,7c-0.29,0.34-0.41,0.8-0.33,1.24
		c0.08,0.44,0.36,0.82,0.75,1.04l11.57,6.41c-0.3,0.53-0.86,1.41-1.92,2.8c-2.4,3.15-7.93,6.37-9.88,7.45l-12.92-7.16l7.72-13.94
		c1.17-0.8,5.79-3.9,9.39-5.3c0.06-0.02,0.12-0.05,0.17-0.08c0.57-0.3,1.36-0.53,1.66-0.49C125.1,37.81,124.62,38.4,124.56,38.48z"
		/>
	<path class="st0" d="M6.49,5.25L0,2.6v3.24L8.94,9.5c0.57,0.23,1.23,0.09,1.66-0.36c0.43-0.45,0.53-1.12,0.27-1.67L7.31,0H3.99
		L6.49,5.25z"/>
	<path class="st0" d="M64.11,144.69c-0.6,0.05-1.11,0.45-1.3,1.02c-0.08,0.22-0.62,1.87-1.24,4.3h3.09
		c0.23-0.88,0.46-1.68,0.68-2.38c2.93-0.12,11.7-0.23,17.94,2.38h5.75C81.33,143.44,64.87,144.63,64.11,144.69z"/>
	<path class="st0" d="M140.24,150l0.28-1.89c0.09-0.61-0.2-1.21-0.73-1.51l-7.71-4.48l8.32-2.1c0.55-0.14,0.97-0.57,1.1-1.12
		l2.19-9.58l4.94,8.52c0.28,0.49,0.8,0.78,1.37,0.75l0.01,0v-4.34l-5.64-9.72c-0.31-0.53-0.91-0.82-1.52-0.73
		c-0.61,0.09-1.1,0.55-1.24,1.15l-2.83,12.4l-11,2.78c-0.59,0.15-1.03,0.64-1.12,1.25c-0.08,0.6,0.2,1.2,0.73,1.51l10.02,5.82
		l-0.19,1.32H140.24z"/>
	<path class="st0" d="M5.4,145.98l7.87-8.51c0.41-0.45,0.52-1.1,0.26-1.65c-0.26-0.55-0.83-0.9-1.44-0.86l-11.34,0.58L0,134.23v4.34
		l8.56-0.44l-6.05,6.55c-0.42,0.45-0.52,1.11-0.25,1.66L3.99,150h3.32L5.4,145.98z"/>
	<path class="st0" d="M47.54,123.99c0.12,0,0.25-0.02,0.38-0.05l16.55-4.28c0.49-0.13,0.88-0.49,1.04-0.96
		c0.12-0.36,3.03-8.8,2.44-14.27c-0.52-4.8-1.21-5.61-1.87-6.02c-0.4-0.25-0.86-0.32-1.29-0.2l-12.14,3.14l-0.41-7.31
		c-0.06-1.52-1.05-3.79-3.55-3.8c0,0-0.01,0-0.01,0c-2.27,0-3.36,2.71-3.62,3.48c-2.04,4.35-3.38,10.97-3.43,11.25
		c-0.04,0.22-0.04,0.45,0.02,0.67l4.45,17.22C46.26,123.54,46.87,123.99,47.54,123.99z M47.8,94.92c0.03-0.05,0.05-0.12,0.07-0.17
		c0.2-0.61,0.62-1.32,0.87-1.5c0.43,0.08,0.49,0.84,0.5,0.94l0.51,9.16c0.02,0.45,0.25,0.86,0.61,1.13
		c0.36,0.27,0.83,0.36,1.26,0.24l12.81-3.31c0.15,0.59,0.35,1.61,0.54,3.35c0.42,3.93-1.37,10.08-2.04,12.21l-14.3,3.7l-3.99-15.43
		C44.92,103.84,46.14,98.42,47.8,94.92z"/>
	<path class="st0" d="M113.32,118.19c0.18,0,0.36-0.03,0.54-0.1c0.79-0.3,19.39-7.54,21.71-17.13c1.25-5.17-1.94-10.4-7.11-11.65
		c-3.39-0.82-6.81,0.27-9.12,2.58c-0.99-3.11-3.53-5.64-6.93-6.46c-5.17-1.25-10.4,1.94-11.65,7.11c0,0,0,0,0,0
		c-2.55,10.54,10.91,24.6,11.48,25.2C112.54,118.03,112.93,118.19,113.32,118.19z M103.68,93.24c0.86-3.56,4.46-5.76,8.03-4.9
		c3.56,0.86,5.76,4.47,4.9,8.03c-0.19,0.8,0.3,1.61,1.1,1.81l0.2,0.05c0.39,0.09,0.79,0.03,1.14-0.18c0.34-0.21,0.58-0.54,0.68-0.93
		c0.86-3.57,4.47-5.76,8.03-4.9c3.56,0.86,5.76,4.47,4.9,8.03c-1.53,6.31-13.4,12.38-18.93,14.66
		C111.1,111.99,101.81,100.98,103.68,93.24z"/>
	<path class="st0" d="M11.51,61.22c0.23,0.57,0.78,0.94,1.39,0.94c0.01,0,0.02,0,0.02,0l12.31-0.2l6.04,10.78
		c0.27,0.48,0.77,0.77,1.31,0.77c0.07,0,0.14,0,0.21-0.02c0.61-0.09,1.11-0.54,1.25-1.15l2.87-12.39l11.45-1.77
		c0.6-0.09,1.09-0.54,1.23-1.13c0.14-0.59-0.09-1.21-0.59-1.57l-9.23-6.6l1.85-12.61c0.09-0.61-0.2-1.21-0.74-1.52
		c-0.54-0.31-1.2-0.25-1.68,0.13l-9.93,7.95l-10.34-4.67c-0.56-0.25-1.21-0.14-1.65,0.28c-0.44,0.42-0.59,1.07-0.36,1.63l4.22,10.79
		l-9.28,8.7C11.43,59.99,11.28,60.65,11.51,61.22z M23.95,52.36c0.45-0.42,0.59-1.07,0.37-1.64l-3.25-8.31l7.82,3.54
		c0.51,0.23,1.12,0.16,1.56-0.2l7.67-6.14l-1.43,9.74c-0.08,0.56,0.15,1.11,0.61,1.44l6.98,4.99l-8.81,1.36
		c-0.61,0.09-1.09,0.55-1.23,1.14l-2.23,9.61l-4.58-8.18c-0.27-0.47-0.77-0.77-1.31-0.77c-0.01,0-0.02,0-0.02,0l-9.32,0.15
		L23.95,52.36z"/>
	<path class="st0" d="M33.45,126.39c0.1,0.39,0.35,0.72,0.69,0.92c0.23,0.14,0.5,0.21,0.76,0.21c0.13,0,0.25-0.02,0.38-0.05
		l6.38-1.65c0.8-0.21,1.28-1.02,1.08-1.83l-4.37-17.01c-0.1-0.39-0.35-0.72-0.69-0.92c-0.34-0.2-0.75-0.26-1.14-0.16l-6.38,1.65
		c-0.8,0.21-1.28,1.02-1.08,1.83L33.45,126.39z M35.82,109.18l3.63,14.11l-3.47,0.9l-3.63-14.11L35.82,109.18z"/>
</g>
</svg>
