<?xml version="1.0" encoding="utf-8"?>
<!-- Generator: Adobe Illustrator 23.0.1, SVG Export Plug-In . SVG Version: 6.00 Build 0)  -->
<svg version="1.1" width='150' height='150' xmlns="http://www.w3.org/2000/svg" xmlns:xlink="http://www.w3.org/1999/xlink" x="0px" y="0px"
	 viewBox="0 0 150 150" style="enable-background:new 0 0 150 150;" xml:space="preserve">
<style type="text/css">
	.st0{fill:#2e2e2e;}
</style>
<g>
	<path class="st0" d="M138.75,97.01c0.47,0.08,0.95-0.06,1.3-0.39c0.35-0.33,0.52-0.8,0.45-1.28c-0.74-5.71-5.04-10.24-10.71-11.27
		c-5.96-1.08-11.4,1.43-13.94,6.29l-20.67-3.75c-0.39-0.07-0.79,0.02-1.12,0.24c-0.33,0.23-0.55,0.57-0.62,0.97l-1.53,8.41
		c-0.15,0.82,0.39,1.6,1.21,1.74l20.66,3.75c0.67,5.44,4.88,9.7,10.84,10.78c0.8,0.14,1.59,0.21,2.38,0.21
		c4.81,0,9.29-2.63,11.61-7.01c0.22-0.42,0.23-0.93,0.02-1.36c-0.21-0.43-0.61-0.74-1.08-0.82l-8.68-1.57l1.18-6.53L138.75,97.01z
		 M128.01,92.46c-0.33,0.23-0.55,0.57-0.62,0.97l-1.72,9.48c-0.15,0.82,0.39,1.6,1.21,1.74l7.91,1.43
		c-2.31,2.77-5.95,4.13-9.61,3.47c-4.96-0.9-8.36-4.57-8.47-9.13c-0.02-0.71-0.53-1.32-1.23-1.44L95.14,95.3l0.99-5.46l20.33,3.69
		c0.7,0.12,1.39-0.26,1.66-0.92c1.7-4.23,6.17-6.47,11.13-5.58c3.67,0.66,6.59,3.22,7.78,6.63l-7.91-1.43
		C128.74,92.15,128.33,92.23,128.01,92.46z"/>
	<polygon class="st0" points="150,8.58 138.64,0 133.67,0 150,12.34 	"/>
	<path class="st0" d="M0,0.3l10.94,8.27l-3.98,5.27L0,8.58v3.76l5.16,3.89l-1.03,1.36c-0.27,0.36-0.37,0.82-0.26,1.26l0.45,1.85
		l-1.98,0.12c-0.44,0.03-0.84,0.24-1.11,0.59L0,23.06v2.49l7.28,5.5c0.27,0.2,0.59,0.3,0.9,0.3c0.45,0,0.9-0.21,1.2-0.6l1.6-2.12
		c0.26-0.34,0.36-0.79,0.27-1.21l-0.41-1.95l1.81-0.02c0.46-0.01,0.9-0.23,1.18-0.6l6.24-8.26c0.04-0.06,0.08-0.12,0.12-0.18
		C20.37,16.09,24.3,8.8,21.96,0h-4.54l-4.66,6.17L4.58,0H0V0.3z M14.24,9.18L14.24,9.18L14.24,9.18l5.16-6.84
		c1.13,6.48-1.44,11.83-1.8,12.54l-5.72,7.57l-2.9,0.03c-0.45,0.01-0.87,0.21-1.15,0.56s-0.39,0.81-0.3,1.25l0.64,3.07l-0.29,0.38
		L3,24.06l0.21-0.28l3.08-0.19c0.44-0.03,0.85-0.25,1.12-0.61c0.26-0.36,0.35-0.81,0.25-1.25l-0.71-2.91l1.5-1.99c0,0,0,0,0,0
		s0,0,0,0L14.24,9.18z"/>
	<path class="st0" d="M123.11,30.83c-0.79-0.26-1.63,0.17-1.89,0.95l-3.71,11.25l-11.25-3.71c-0.79-0.26-1.63,0.17-1.89,0.95
		c-0.26,0.79,0.17,1.63,0.96,1.89l11.25,3.71l-3.71,11.25c-0.26,0.79,0.17,1.63,0.96,1.89c0.16,0.05,0.31,0.08,0.47,0.08
		c0.63,0,1.22-0.4,1.42-1.03l3.71-11.25l11.25,3.71c0.16,0.05,0.31,0.08,0.47,0.08c0.63,0,1.22-0.4,1.42-1.03
		c0.26-0.79-0.17-1.63-0.96-1.89l-11.25-3.71l3.71-11.25C124.32,31.93,123.89,31.09,123.11,30.83z"/>
	<polygon class="st0" points="150,0.3 150,0 149.6,0 	"/>
	<path class="st0" d="M150,25.55L150,25.55l0-2.49l-0.29,0.39C149.21,24.11,149.34,25.05,150,25.55z"/>
	<path class="st0" d="M87.85,0.56C88.22,0.7,88.63,0.7,89,0.53c0.26-0.11,0.48-0.3,0.63-0.53H86.4L87.85,0.56z"/>
	<path class="st0" d="M20.31,147.48c-0.55-0.09-1.1,0.14-1.43,0.58L17.42,150h4.54c-0.13-0.5-0.29-1.01-0.46-1.52
		C21.31,147.95,20.86,147.57,20.31,147.48z"/>
	<polygon class="st0" points="0,150 4.58,150 0,146.54 	"/>
	<path class="st0" d="M130.9,144.15l3.98-5.27L149.6,150h0.4v-3.46l-14.51-10.96c-0.32-0.24-0.72-0.35-1.11-0.29
		c-0.39,0.05-0.75,0.26-0.99,0.58l-5.79,7.66c-0.5,0.66-0.37,1.6,0.29,2.1l5.77,4.36h4.98L130.9,144.15z"/>
	<path class="st0" d="M93.06,138.37c-0.37-0.3-0.87-0.4-1.33-0.28s-0.84,0.46-1.01,0.91l-3.19,8.22l-6.19-2.4l3.19-8.22
		c0.17-0.45,0.12-0.95-0.14-1.35s-0.69-0.66-1.17-0.69c-5.76-0.36-11.01,3.01-13.09,8.38c-0.93,2.39-1.2,4.8-0.89,7.06h3.05
		c-0.35-1.88-0.16-3.94,0.63-5.97c1.35-3.47,4.41-5.86,7.98-6.39l-2.91,7.49c-0.14,0.37-0.13,0.78,0.03,1.15
		c0.16,0.36,0.46,0.65,0.83,0.79L86.4,150h3.23c0.06-0.09,0.12-0.19,0.16-0.3l2.9-7.49c1.78,2.18,2.57,5,2.18,7.79h3.02
		C98.37,145.62,96.62,141.23,93.06,138.37z"/>
	<path class="st0" d="M73.67,7.82L66.08,27.4c-0.14,0.37-0.13,0.78,0.03,1.15c0.16,0.36,0.46,0.65,0.83,0.79l7.97,3.09
		c0.17,0.07,0.36,0.1,0.54,0.1c0.21,0,0.41-0.04,0.61-0.13c0.36-0.16,0.65-0.46,0.79-0.83l7.59-19.58
		c5.47,0.37,10.45-2.96,12.64-8.6C97.51,2.28,97.78,1.14,97.9,0h-3.02c-0.11,0.78-0.3,1.55-0.59,2.3c-1.82,4.7-6.07,7.34-10.57,6.58
		c-0.71-0.12-1.39,0.27-1.65,0.94L74.6,29.09l-5.18-2.01l7.47-19.27c0.26-0.66,0.01-1.42-0.59-1.8c-2.18-1.4-3.55-3.55-4-6.01h-3.05
		C69.68,3.08,71.19,5.85,73.67,7.82z"/>
	<path class="st0" d="M60.68,116.34c-0.16-0.81-0.95-1.35-1.76-1.19l-11.63,2.26l-2.26-11.63c-0.16-0.81-0.95-1.35-1.76-1.19
		c-0.81,0.16-1.34,0.95-1.19,1.76l2.26,11.63l-11.63,2.26c-0.81,0.16-1.34,0.95-1.19,1.76c0.14,0.72,0.77,1.21,1.47,1.21
		c0.09,0,0.19-0.01,0.29-0.03l11.63-2.26l2.26,11.63c0.14,0.72,0.77,1.21,1.47,1.21c0.09,0,0.19-0.01,0.29-0.03
		c0.81-0.16,1.34-0.95,1.19-1.76l-2.26-11.63l11.63-2.26C60.31,117.94,60.84,117.16,60.68,116.34z"/>
	<path class="st0" d="M14.12,58.13c-0.17,0.36-0.18,0.77-0.04,1.15l0.93,2.49c0.15,0.41,0.47,0.73,0.87,0.88l1.87,0.71l-0.95,1.54
		c-0.24,0.39-0.29,0.88-0.13,1.32l3.62,9.69c0.02,0.07,0.05,0.13,0.09,0.19c0.19,0.34,4.69,8.41,14.44,10.72
		c0.11,0.03,0.23,0.04,0.35,0.04c0.42,0,0.84-0.18,1.12-0.51c0.37-0.42,0.47-1,0.28-1.52l-3.56-9.52l32-11.96
		c0.37-0.14,0.67-0.42,0.84-0.78c0.17-0.36,0.18-0.77,0.04-1.15l-3.36-9c-0.14-0.37-0.42-0.67-0.78-0.84
		c-0.36-0.17-0.77-0.18-1.15-0.04l-32,11.96l-0.6-1.59c-0.16-0.42-0.5-0.75-0.93-0.9l-1.81-0.61l0.96-1.73
		c0.21-0.38,0.25-0.84,0.09-1.25l-0.89-2.38c-0.29-0.78-1.15-1.17-1.93-0.88l-8.55,3.19C14.59,57.48,14.28,57.77,14.12,58.13z
		 M60.25,54.88l2.31,6.19L31.96,72.5l-2.31-6.19L60.25,54.88z M23.15,57.49l0.12,0.33l-1.5,2.7c-0.22,0.39-0.25,0.85-0.09,1.27
		c0.16,0.41,0.5,0.74,0.92,0.88l2.83,0.96l0.87,2.33v0l0,0l6.36,17.02c-6.07-2.52-9.21-7.55-9.62-8.24l-3.32-8.89l1.52-2.46
		c0.24-0.38,0.29-0.85,0.15-1.27c-0.14-0.42-0.47-0.76-0.89-0.92l-2.93-1.11l-0.17-0.45L23.15,57.49z"/>
</g>
</svg>
