<?xml version="1.0" encoding="utf-8"?>
<!-- Generator: Adobe Illustrator 23.0.1, SVG Export Plug-In . SVG Version: 6.00 Build 0)  -->
<svg version="1.1" xmlns="http://www.w3.org/2000/svg" xmlns:xlink="http://www.w3.org/1999/xlink" x="0px" y="0px"
	 viewBox="0 0 150 125" style="enable-background:new 0 0 150 125;" xml:space="preserve">
<style type="text/css">
	.st0{fill:#12D26D;}
	.st1{fill:#FFFFFF;}
</style>
<path class="st0" d="M103.9,56.1H91c0,0,0,0,0,0l4.7-2.1c0.4-0.2,3.7-1.6,4.8-4.7c0.7-2,0.3-4.2-1-6.6c-0.3-0.6-1.1-0.8-1.6-0.4
	c-0.6,0.3-0.8,1.1-0.4,1.6c1,1.7,1.3,3.2,0.8,4.6c-0.8,2.2-3.4,3.3-3.4,3.3c0,0,0,0-0.1,0l-0.2,0.1c0.6-2,0.3-4.1-1.1-6.4
	c-0.3-0.6-1.1-0.8-1.6-0.4c-0.6,0.3-0.8,1.1-0.4,1.6c1,1.7,1.3,3.2,0.8,4.6c-0.4,1.3-1.5,2.2-2.4,2.8l-4.7,2.1H63.6L59,54
	c-0.8-0.5-1.9-1.4-2.4-2.8c-0.5-1.3-0.2-2.9,0.8-4.6c0.3-0.6,0.1-1.3-0.4-1.6c-0.6-0.3-1.3-0.1-1.6,0.4c-1.3,2.3-1.7,4.5-1.1,6.4
	l-0.2-0.1c0,0,0,0,0,0c0,0-2.7-1.1-3.5-3.3c-0.5-1.3-0.2-2.9,0.8-4.6c0.3-0.6,0.1-1.3-0.4-1.6c-0.6-0.3-1.3-0.1-1.6,0.4
	c-1.4,2.3-1.7,4.6-1,6.6c1.1,3.2,4.4,4.6,4.8,4.7l4.7,2.1c0,0,0,0,0,0H44.9c-2.6,0-4.5,2.1-4.3,4.7L43.3,88L25,81.6
	c0.2-0.5,0.3-1,0.3-1.6c0-1.3-0.5-2.4-1.3-3.2l2-7.1c0.2-0.6-0.2-1.2-0.8-1.3c-0.6-0.2-1.2,0.2-1.3,0.8l-1.8,6.5
	c-0.1-0.1-0.3-0.1-0.5-0.1l-2-7.1c-0.2-0.6-0.8-1-1.5-0.8c-0.6,0.2-1,0.8-0.8,1.5l1.9,6.6c-0.1,0-0.2,0.1-0.2,0.1l-0.1-0.2
	c-0.2-0.6-0.9-1-1.5-0.8s-1,0.8-0.8,1.5l0.3,1.1c0,0,0,0.1-0.1,0.1c-0.2-0.4-0.7-0.7-1.2-0.5c-0.5,0.2-0.7,0.7-0.6,1.2l1,2.7
	c0.4,2.1,2.3,3.8,4.5,3.8c1.1,0,2.1-0.4,2.9-1l20,7.1l2.8,29.2c0.2,2.6,2.6,4.7,5.2,4.7h45.7c2.6,0,5-2.1,5.2-4.7l5.7-59
	C108.5,58.2,106.5,56.1,103.9,56.1z"/>
<path id="face6_1_" class="st1" d="M95.1,91.1c0,2.6-2.1,4.8-4.8,4.8H58.5c-2.6,0-4.8-2.1-4.8-4.8V74.3c0-2.6,2.1-4.8,4.8-4.8h31.9
	c2.6,0,4.8,2.1,4.8,4.8L95.1,91.1L95.1,91.1z"/>
<g id="eyes9">
	<g>
		<path class="st0" d="M67.2,75c1.1,0,1.9,0.8,1.9,1.9s-0.8,1.9-1.9,1.9s-1.9-0.8-1.9-1.9S66.2,75,67.2,75 M67.2,72.7
			c-2.4,0-4.3,1.9-4.3,4.3s1.9,4.3,4.3,4.3s4.3-1.9,4.3-4.3S69.6,72.7,67.2,72.7L67.2,72.7z"/>
	</g>
	<g>
		<path class="st0" d="M79,78c-0.7,0-1.2-0.5-1.2-1.2s0.5-1.2,1.2-1.2h7c0.7,0,1.2,0.5,1.2,1.2S86.6,78,86,78H79z"/>
	</g>
</g>
<path id="mouth8_1_" class="st0" d="M80.4,87.1H68.5c-0.7,0-1.2,0.5-1.2,1.2s0.5,1.2,1.2,1.2h1.4l1.3,3.2l1.3-3.2h4.1l1.3,3.2
	l1.3-3.2h1.3c0.7,0,1.2-0.5,1.2-1.2C81.6,87.6,81.1,87.1,80.4,87.1z"/>
</svg>
