<?xml version="1.0" encoding="utf-8"?>
<!-- Generator: Adobe Illustrator 23.0.1, SVG Export Plug-In . SVG Version: 6.00 Build 0)  -->
<svg version="1.1" xmlns="http://www.w3.org/2000/svg" xmlns:xlink="http://www.w3.org/1999/xlink" x="0px" y="0px"
	 viewBox="0 0 150 125" style="enable-background:new 0 0 150 125;" xml:space="preserve">
<style type="text/css">
	.st0{fill:#ff7474;}
	.st1{fill:#ffffff;}
</style>
<path class="st0" d="M143.2,82.1c-2.7-2.7-4.8-2.9-7-3.1v-1c-3.8-2.2-6.6-1.6-8.1-0.8v-1.8c0.3-0.2,0.6-0.4,0.9-0.8
	c-0.4-0.5-0.7-0.8-1-0.9c-0.2-0.1-0.4-0.2-0.6-0.2c-0.1-1.6-0.4-3.3-0.4-3.3s-0.3,1.7-0.4,3.3c-0.2,0-0.4,0.1-0.6,0.2
	c-0.3,0.2-0.7,0.4-1,0.9c0.3,0.4,0.6,0.7,0.9,0.8v14.1h-16.6V61.2c0-2.6-2.1-4.8-4.8-4.8h-21l2.2-10.1l-3.6,2.8l-3.5-2.9l-3.5,2.9
	l-3.5-2.9l-3.5,2.9l-3.6-2.8l2.2,10.1h-21c-2.6,0-4.8,2.1-4.8,4.8v59c0,2.6,2.1,4.8,4.8,4.8h59c2.6,0,4.8-2.1,4.8-4.8V91.9h16.6
	v15.3c0,0.7,0.5,1.2,1.2,1.2s1.2-0.5,1.2-1.2V91.9h0.5c0.7,0,1.2-0.5,1.2-1.2s-0.5-1.2-1.2-1.2h-0.5v-7.4c1.1-0.6,2.7-1.1,5-0.3
	l0,2.3c0,0,4.1-2.2,9,2.9l-1.4-4L143.2,82.1z"/>
<path id="face4_1_" class="st1" d="M95.6,72.1c0-2.6-2.1-4.1-4.7-3.4c-11.1,2.2-21,2.2-32.1,0c-2.6-0.6-4.7,0.8-4.7,3.4
	c0,5.6,0,11.2,0,16.8c0,2.6,2.1,5.5,4.7,6.1c11.1,2.2,21,2.2,32.1,0c2.6-0.6,4.7-3.5,4.7-6.1C95.6,83.3,95.6,77.7,95.6,72.1z"/>
<path class="st0" d="M78.4,77.1c0,0.1,0,0.1,0,0.2c0,2.4,1.9,4.3,4.3,4.3s4.3-1.9,4.3-4.3c0-0.1,0-0.1,0-0.2H78.4z"/>
<path class="st0" d="M62.7,77.1c0,0.1,0,0.1,0,0.2c0,2.4,1.9,4.3,4.3,4.3s4.3-1.9,4.3-4.3c0-0.1,0-0.1,0-0.2H62.7z"/>
<path id="mouth7_1_" class="st0" d="M80.8,87.2H68.9c-0.7,0-1.2,0.5-1.2,1.2s0.5,1.2,1.2,1.2h5.3l0.8,2.1c0.5,1.2,1.9,1.8,3.1,1.4
	c1.2-0.5,1.8-1.9,1.4-3.1l-0.1-0.3h1.4c0.7,0,1.2-0.5,1.2-1.2S81.5,87.2,80.8,87.2z"/>
</svg>
