<?xml version="1.0" encoding="utf-8"?>
<!-- Generator: Adobe Illustrator 23.0.1, SVG Export Plug-In . SVG Version: 6.00 Build 0)  -->
<svg version="1.1" xmlns="http://www.w3.org/2000/svg" xmlns:xlink="http://www.w3.org/1999/xlink" x="0px" y="0px"
	 viewBox="0 0 150 125" style="enable-background:new 0 0 150 125;" xml:space="preserve">
<style type="text/css">
	.st0{fill:#EB6261;}
	.st1{fill:#FFFFFF;}
</style>
<path class="st0" d="M89,60.2c0-0.1,0-0.3,0-0.4c0.1-0.7,0.1-1,0.2-1.4s0.3-0.8,0.5-1.2l0.1-0.1l0,0l0,0l0,0l0,0l0,0l0,0l0,0
	c0,0,0.1-0.1,0.1-0.2c0.1-0.2,0.3-0.3,0.5-0.5c0.4-0.3,1-0.7,1.6-1.2c0.6-0.4,1.2-0.9,1.8-1.5c0.6-0.6,1.2-1.4,1.5-2.3l0.1-0.2v-0.1
	c0.1-0.2,0.1-0.3,0.1-0.4c0.1-0.3,0.1-0.5,0.1-0.8c0-0.5,0-0.9-0.1-1.3c-0.2-0.8-0.4-1.5-0.6-2.1c-0.5-1.3-0.9-2.4-1-3.6
	c0-2.2,2.3-4.8,1.7-7.6c0,0.7-0.1,1.3-0.4,1.9s-0.6,1.2-0.9,1.7c-0.4,0.6-0.8,1.1-1.1,1.7c-0.4,0.6-0.7,1.3-0.9,2.1
	c-0.3,1.5,0,3,0.2,4.3c0.1,0.7,0.2,1.3,0.2,1.8c0,0.3,0,0.5-0.1,0.7c0,0.1-0.1,0.2-0.1,0.2s0,0.1-0.1,0.1l0,0v0.1l0,0l0,0l0,0l0,0
	l0,0c-0.2,0.3-0.5,0.6-0.9,0.8c-0.4,0.3-0.9,0.5-1.5,0.8s-1.2,0.5-1.9,0.8c-0.3,0.2-0.7,0.4-1.1,0.6c-0.2,0.1-0.4,0.3-0.6,0.5
	l-0.2,0.1L86,53.7h-0.1l0,0l0,0l0,0l0,0L85.8,54c-0.6,0.6-1.2,1.3-1.6,2.2c-0.4,0.7-0.6,1.4-0.8,2c-2.7-0.7-5.4-1-8.3-1
	c-3,0-5.9,0.4-8.7,1.1c-0.2-0.6-0.5-1.4-0.8-2.1c-0.4-0.8-1-1.6-1.6-2.2l-0.1-0.1l0,0l0,0l0,0l0,0l0,0l-0.2-0.2l-0.2-0.1
	c-0.2-0.2-0.4-0.3-0.6-0.5c-0.4-0.3-0.8-0.5-1.1-0.6c-0.7-0.3-1.3-0.6-1.9-0.8c-0.6-0.2-1.1-0.5-1.5-0.8s-0.7-0.5-0.9-0.8l0,0l0,0
	l0,0l0,0c0,0,0,0.1,0,0V50l0,0c0,0,0,0,0-0.1s-0.1-0.1-0.1-0.2c0-0.2-0.1-0.4-0.1-0.7c0-0.5,0.1-1.2,0.2-1.8
	c0.2-1.3,0.5-2.8,0.2-4.3c-0.2-0.8-0.5-1.5-0.9-2.1s-0.8-1.2-1.1-1.7s-0.7-1.1-1-1.7S54,36,54.1,35.3c-0.6,2.8,1.7,5.4,1.7,7.6
	c0,1.1-0.5,2.3-1,3.6c-0.2,0.6-0.5,1.3-0.6,2.1C54,49,54,49.4,54,49.9c0,0.2,0,0.5,0.1,0.8c0,0.1,0,0.2,0.1,0.4v0.1l0.1,0.2
	c0.3,0.9,0.9,1.7,1.5,2.3s1.2,1.1,1.8,1.5s1.2,0.8,1.6,1.2c0.2,0.2,0.4,0.3,0.5,0.5c0.1,0.1,0.1,0.1,0.1,0.2l0,0l0,0l0,0l0,0l0,0
	c0,0,0-0.1,0,0l0,0v0.1c0.3,0.4,0.4,0.8,0.5,1.2s0.1,0.7,0.2,1.4c0,0.2,0,0.4,0.1,0.6C50,65.3,42.4,75.6,41.2,87.7L26,82.2
	c0.1-0.2,0.2-0.5,0.2-0.7c0.2-1,0.1-2-0.3-2.9l2.2-6.3c0.2-0.6-0.1-1.3-0.7-1.5s-1.3,0.1-1.5,0.7l-1.8,5.1c-0.1-0.1-0.2-0.1-0.2-0.1
	v-0.6c0-0.7-0.6-1.2-1.2-1.1c-0.6,0-1.1,0.5-1.1,1.1c-0.2-0.3-0.6-0.5-1-0.5c-0.5,0.1-0.9,0.6-0.9,1.2c-0.2,0.1-0.4,0.2-0.5,0.3
	l-1.4-3.4C17.6,73,17,72.8,16.6,73s-0.7,0.8-0.5,1.2l1.8,4.3c-0.2,0.3-0.3,0.7-0.4,1.1c-0.5,2.5,1,4.9,3.5,5.4
	c1.4,0.3,2.7,0,3.7-0.8l16.7,5.9c0,0.3,0,0.7,0,1v29.2c0,2.6,2.1,4.7,4.7,4.7h58.4c2.6,0,4.7-2.1,4.7-4.7V91.1
	C109,77.3,100.8,65.5,89,60.2z"/>
<path id="face3_1_" class="st1" d="M95.3,82.5c0,7.2-6.3,13-14.1,13H68.5c-7.8,0-14.1-5.9-14.1-13s6.3-13,14.1-13h12.7
	C89,69.4,95.3,75.3,95.3,82.5z"/>
<g>
	<path class="st0" d="M67.1,75.7c1,0,1.9,0.8,1.9,1.9s-0.8,1.9-1.9,1.9s-1.9-0.8-1.9-1.9S66.1,75.7,67.1,75.7 M67.1,73.3
		c-2.3,0-4.2,1.9-4.2,4.2s1.9,4.2,4.2,4.2s4.2-1.9,4.2-4.2S69.4,73.3,67.1,73.3L67.1,73.3z"/>
</g>
<g>
	<path class="st0" d="M82.6,75.7c1,0,1.9,0.8,1.9,1.9s-0.8,1.9-1.9,1.9s-1.9-0.8-1.9-1.9S81.6,75.7,82.6,75.7 M82.6,73.3
		c-2.3,0-4.2,1.9-4.2,4.2s1.9,4.2,4.2,4.2s4.2-1.9,4.2-4.2S85,73.3,82.6,73.3L82.6,73.3z"/>
</g>
<g id="mouth1">
	<path class="st0" d="M74.9,93c-3.3,0-6.2-2.4-6.7-5.7c-0.1-0.6,0.3-1.2,1-1.4c0.6-0.1,1.2,0.3,1.4,1c0.4,2.2,2.2,3.7,4.4,3.7
		s4.1-1.6,4.4-3.7c0.1-0.6,0.7-1.1,1.4-1c0.6,0.1,1.1,0.7,1,1.4C81.1,90.6,78.2,93,74.9,93z"/>
</g>
</svg>
