<?xml version="1.0" encoding="utf-8"?>
<!-- Generator: Adobe Illustrator 23.0.1, SVG Export Plug-In . SVG Version: 6.00 Build 0)  -->
<svg version="1.1" xmlns="http://www.w3.org/2000/svg" xmlns:xlink="http://www.w3.org/1999/xlink" x="0px" y="0px"
	 viewBox="0 0 150 125" style="enable-background:new 0 0 150 125;" xml:space="preserve">
<style type="text/css">
	.st0{fill:#D96CF4;}
	.st1{fill:#FFFFFF;}
</style>
<path class="st0" d="M127.8,81.3c-0.2-0.6-0.9-0.9-1.5-0.7l-17.8,6.3C107.2,73.5,98.1,62.4,85.9,58c2-2.5,4.2-5.7,5.6-9.6
	c3.4-9.1,1.5-18.2,1.5-18.2S85.7,35.8,82.3,45c-1.5,4.2-2,8.3-2,11.6c-1.9-0.3-3.8-0.5-5.8-0.5c-2,0-3.9,0.2-5.8,0.5
	c0-3.3-0.5-7.4-2-11.6c-3.4-9.1-10.8-14.8-10.8-14.8s-1.9,9.1,1.5,18.2c1.5,3.9,3.6,7.2,5.6,9.6c-12.2,4.4-21.3,15.5-22.6,28.9
	l-17.9-6.3c-0.6-0.2-1.3,0.1-1.5,0.7c-0.2,0.6,0.1,1.3,0.7,1.5l18.5,6.6c0,0.3,0,0.6,0,0.9c0,18.9,15.3,34.2,34.2,34.2
	s34.2-15.3,34.2-34.2c0-0.3,0-0.6,0-0.9l18.4-6.5C127.7,82.6,128,81.9,127.8,81.3z"/>
<path id="face2_1_" class="st1" d="M92,90.9c-0.4,2.6-2.8,4.7-5.4,4.7h-7.1c-2.6,0-6.9,0-9.5,0h-7.6c-2.6,0-5.1-2.1-5.4-4.7L54.5,74
	c-0.4-2.6,1.5-4.7,4.1-4.7h31.8c2.6,0,4.4,2.1,4.1,4.7L92,90.9z"/>
<path class="st0" d="M69.5,84.3c0,1.7,0,2.5,0,4.2c0,2.3,2.1,3.8,4.9,3.8s4.9-1.5,4.9-3.8c0-1.7,0-2.5,0-4.2
	C75.7,86,73.2,86,69.5,84.3z"/>
<path class="st1" d="M75.1,87.2v1.7h2.2V87C76.5,87.1,75.8,87.2,75.1,87.2z"/>
<path class="st1" d="M71.8,87v1.9H74v-1.7C73.3,87.2,72.5,87.1,71.8,87z"/>
<g id="eyes11">
	<g>
		<path class="st0" d="M69.6,77.7h-7c-0.7,0-1.2-0.5-1.2-1.2s0.5-1.2,1.2-1.2h7c0.7,0,1.2,0.5,1.2,1.2S70.3,77.7,69.6,77.7z"/>
	</g>
	<g>
		<path class="st0" d="M86.2,77.7h-7c-0.7,0-1.2-0.5-1.2-1.2s0.5-1.2,1.2-1.2h7c0.7,0,1.2,0.5,1.2,1.2S86.9,77.7,86.2,77.7z"/>
	</g>
</g>
</svg>
