<?xml version="1.0" encoding="utf-8"?>
<!-- Generator: Adobe Illustrator 23.0.1, SVG Export Plug-In . SVG Version: 6.00 Build 0)  -->
<svg version="1.1" xmlns="http://www.w3.org/2000/svg" xmlns:xlink="http://www.w3.org/1999/xlink" x="0px" y="0px"
	 viewBox="0 0 200 200" xml:space="preserve">
<style type="text/css">
	.st0{fill:#7c5aed;}
	.st1{fill:#ffffff;}
</style>
<g>
	<circle class="st0" cx="100" cy="100" r="100"/>
	<g>
		<circle class="st1" cx="71.85" cy="59.11" r="13.89"/>
		<circle class="st1" cx="128.37" cy="59.11" r="13.89"/>
		<path class="st1" d="M142.15,98.23c-4.52-1.02-9.02,1.83-10.03,6.36c-1.48,6.61-7.58,21.99-32.12,21.99
			c-24.54,0-30.64-15.38-32.12-21.99c-1.01-4.53-5.51-7.38-10.03-6.36c-4.53,1.01-7.37,5.51-6.36,10.03
			c1.12,5.01,4.92,16.89,16.16,25.45l7.56,30.36l5.84-23.46c5.34,1.71,11.58,2.76,18.95,2.76c7.47,0,13.77-1.08,19.15-2.84
			l5.86,23.54l7.62-30.59c11.02-8.54,14.77-20.26,15.88-25.22C149.53,103.74,146.68,99.24,142.15,98.23z"/>
	</g>
</g>
</svg>
