<?xml version="1.0" encoding="utf-8"?>
<!-- Generator: Adobe Illustrator 23.0.1, SVG Export Plug-In . SVG Version: 6.00 Build 0)  -->
<svg version="1.1" xmlns="http://www.w3.org/2000/svg" xmlns:xlink="http://www.w3.org/1999/xlink" x="0px" y="0px"
	 viewBox="0 0 264.34 52.82" xml:space="preserve">
<style type="text/css">
	.st0{fill:#7c5aed;}
	.st1{fill:#ffffff;}
</style>
<g>
	<g>
		<circle class="st0" cx="26.41" cy="26.41" r="26.41"/>
		<g>
			<circle class="st1" cx="18.98" cy="15.61" r="3.67"/>
			<circle class="st1" cx="33.91" cy="15.61" r="3.67"/>
			<path class="st1" d="M37.55,25.94c-1.19-0.27-2.38,0.48-2.65,1.68c-0.39,1.75-2,5.81-8.48,5.81c-6.48,0-8.09-4.06-8.48-5.81
				c-0.27-1.2-1.46-1.95-2.65-1.68c-1.2,0.27-1.95,1.45-1.68,2.65c0.3,1.32,1.3,4.46,4.27,6.72l2,8.02l1.54-6.2
				c1.41,0.45,3.06,0.73,5,0.73c1.97,0,3.64-0.29,5.06-0.75l1.55,6.22l2.01-8.08c2.91-2.26,3.9-5.35,4.19-6.66
				C39.49,27.4,38.74,26.21,37.55,25.94z"/>
		</g>
	</g>
	<g>
		<path d="M85.51,14.87c1.38,0,2.5,0.38,2.5,0.84s-0.34,0.85-0.76,0.87c-0.42,0.01-1.21,1.06-1.75,2.33l-7.33,17.01
			c-0.54,1.26-2.11,2.37-3.49,2.45l-0.31,0.02c-1.37,0.08-2.9-0.91-3.39-2.19l-6.53-17.24c-0.49-1.29-1.23-2.35-1.65-2.37
			c-0.42-0.01-0.76-0.4-0.76-0.87s1.13-0.84,2.5-0.84H72c1.38,0,2.5,0.38,2.5,0.84s-0.5,0.85-1.1,0.87
			c-0.61,0.01-0.8,1.11-0.42,2.44l3.21,11.37c0.37,1.33,0.97,1.32,1.32-0.01l3.02-11.35c0.35-1.33,0.15-2.43-0.46-2.45
			c-0.61-0.01-1.1-0.4-1.1-0.87s1.13-0.84,2.5-0.84H85.51z"/>
		<path d="M108.1,35.03c0.17,0.42-0.7,1.24-1.95,1.83l-3.2,1.5c-1.25,0.59-2.63,0.71-3.06,0.28c-0.44-0.43-2.13-1.4-3.34-0.73
			c0,0-0.34,0.19-1.62,0.68c-1.28,0.49-2.39,0.74-3.34,0.74c-1.44,0-2.61-0.51-3.52-1.52c-0.91-1.02-1.37-2.31-1.37-3.89
			c0-0.7,0.08-1.46,0.24-2.29c0.16-0.82,0.16-0.82,0.16-0.82c0.25-0.63,1.56-1.33,2.92-1.54l6.2-0.99c1.36-0.22,2.5-0.74,2.52-1.16
			c0.03-0.42-0.05-1.88-0.18-3.26c0,0-0.03-0.32-0.77-1.21c-0.74-0.89-1.93-1.34-3.58-1.34c-0.74,0-1.51,0.08-2.31,0.24
			c-0.81,0.16-0.81,0.16-0.81,0.16c-0.68,0.25-1.43,0.85-1.66,1.34s-0.74,0.78-1.13,0.63c-0.39-0.14-0.37-1.34,0.05-2.65l0.89-2.8
			c0.42-1.31,1.83-2.74,3.14-3.17c0,0,2.88-0.95,5.3-0.95c2.49,0,4.52,0.66,6.1,1.97c1.58,1.31,1.97,3.71,1.97,3.71
			c0.22,1.36,0.39,2.71,0.37,3c-0.01,0.29-0.11,1.65-0.21,3.02l-0.16,2.1c-0.1,1.37-0.21,2.92-0.24,3.44
			c-0.03,0.52-0.03,1.45,0,2.08c0,0,0,0,0.11,0.37c0.11,0.37,0.11,0.37,0.11,0.37c0.23,0.42,0.79,0.62,1.24,0.45
			S107.92,34.61,108.1,35.03z M97.04,35.53c0.76-0.35,1.37-0.88,1.36-1.18c-0.01-0.3-0.01-0.81,0-1.13
			c0.01-0.32,0.06-1.25,0.11-2.08s-0.83-1.29-1.95-1.02c-1.11,0.26-2.12,0.95-2.23,1.54c0,0,0,0,0,0.77c0,1.05,0.21,1.83,0.63,2.34
			c0.42,0.51,0.93,0.76,1.52,0.76C97.04,35.53,97.04,35.53,97.04,35.53z"/>
		<path d="M119.56,21.41c-0.29,0.36-0.54,1.78-0.56,3.16l-0.14,9.77c-0.02,1.38,1.02,2.54,2.3,2.58s2.34,0.42,2.34,0.84
			c0,0.42-1.13,0.76-2.5,0.76h-9.03c-1.38,0-2.5-0.34-2.5-0.76c0-0.42,0.44-0.8,0.97-0.84s0.96-1.21,0.95-2.58l-0.12-13.81
			c-0.01-1.38-0.47-2.4-1.02-2.27c-0.55,0.13-1.12-0.12-1.26-0.55c-0.14-0.43,0.81-1.12,2.13-1.53l3.53-1.09
			c1.32-0.41,2.73,0.33,3.15,1.64l0.27,0.85c0.42,1.31,1.3,1.45,1.97,0.3c0.66-1.15,3.34-3.57,4.28-3.8c0,0,0,0,1.09,0
			c1.47,0,1.75,0.08,1.75,0.08c1.32,0.39,2.13,1.8,1.8,3.14l-0.49,1.97c-0.33,1.34-1.64,2.25-2.91,2.03c0,0,0,0-1.58-0.18
			c-1.58-0.18-1.58-0.18-1.58-0.18C121.12,20.84,119.85,21.05,119.56,21.41z"/>
		<path d="M151.75,14.87c1.38,0,2.5,0.38,2.5,0.84s-0.34,0.85-0.76,0.87c-0.42,0.01-1.21,1.06-1.75,2.33l-4.7,10.91
			c-0.54,1.26-1.45,3.33-2.02,4.58c0,0-2.68,4.72-4.63,8.29c-1.95,3.57-3.88,6.44-3.88,6.44c-0.77,1.14-2.22,1.3-3.22,0.35
			l-2.57-2.44c-1-0.95-0.86-2.33,0.3-3.06l7.58-4.07c1.09-0.85,1.32-1.5,0.53-1.46c-0.8,0.04-1.84-0.98-2.31-2.27l-6.36-17.23
			c-0.48-1.29-1.21-2.36-1.63-2.37c-0.42-0.01-0.76-0.4-0.76-0.87s1.13-0.84,2.5-0.84h7.45c1.38,0,2.5,0.38,2.5,0.84
			s-0.5,0.85-1.1,0.87c-0.61,0.01-0.78,1.11-0.39,2.43l3.36,11.29c0.39,1.32,1.01,1.31,1.36-0.02l3.02-11.25
			c0.36-1.33,0.15-2.43-0.46-2.44c-0.61-0.01-1.1-0.4-1.1-0.87s1.13-0.84,2.5-0.84H151.75z"/>
		<path d="M163.53,21.39c0.75,0.77,1.9,1.68,3.44,2.73c1.89,1.3,3.33,2.47,4.31,3.52c0.98,1.05,1.47,2.35,1.47,3.89
			c0,1.37-0.4,2.65-1.21,3.84c-0.81,1.19-1.95,2.15-3.42,2.87c-1.47,0.72-3.15,1.08-5.05,1.08c-1.82,0-3.55-0.44-5.18-1.31
			c-1.63-0.88-2.05-1.4-2.05-1.4c-0.86-1.08-0.68-2.67,0.4-3.53l0.62-0.49c1.07-0.86,2.53-0.6,3.23,0.59c0,0,0.78,1.34,1.58,2.39
			c0.8,1.06,1.95,1.47,2.55,0.93c0,0,0,0,0.4-0.61c0.4-0.61,0.61-1.22,0.61-1.81c0-0.98-0.36-1.83-1.08-2.55
			c-0.72-0.72-1.83-1.59-3.34-2.6c-1.23-0.81-2.21-1.51-2.94-2.1c-0.74-0.6-1.36-1.31-1.87-2.16c-0.51-0.84-0.76-1.79-0.76-2.84
			c0-1.3,0.43-2.54,1.29-3.73c0.86-1.19,2.06-2.16,3.6-2.89c1.54-0.74,3.29-1.1,5.26-1.1c1.51,0,2.93,0.32,4.28,0.97
			c1.35,0.65,1.45,0.74,1.45,0.74c1.01,0.94,1.03,2.49,0.05,3.46l-0.54,0.53c-0.98,0.97-2.52,0.91-3.43-0.13l-2.09-2.15
			c-1.01-0.93-2.24-0.9-2.73,0.07c0,0,0,0,0,1.23C162.4,19.76,162.78,20.62,163.53,21.39z"/>
		<path d="M193.34,32.13c1.2-0.68,2.37-1.02,2.6-0.76s-0.24,1.39-1.04,2.5c0,0-1.45,2.02-3.4,3.38c-1.94,1.37-4.04,2.05-6.28,2.05
			c-3.15,0-5.67-1.06-7.54-3.18c-1.88-2.12-2.81-4.98-2.81-8.6c0-2.14,0.44-4.26,1.32-6.36c0.88-2.1,1.81-3.29,1.81-3.29
			c0.85-1.08,2.59-2.41,3.85-2.96c0,0,0.14-0.06,1.43-0.37c1.3-0.32,2.54-0.47,3.73-0.47c2.07,0,3.91,0.56,5.52,1.68
			c1.61,1.12,2.6,2.75,2.6,2.75c0.71,1.18,0.32,2.71-0.87,3.4l-1.72,1c-1.19,0.69-2.59,0.22-3.12-1.05c0,0-0.36-0.86-1.3-2.47
			c-0.95-1.61-0.95-1.61-0.95-1.61c-0.84-0.94-2.22-0.82-3.07,0.27c0,0-0.14,0.18-0.79,1.85c-0.65,1.67-0.97,3.37-0.97,5.13
			c0,2.7,0.6,4.75,1.79,6.15c1.19,1.4,2.87,2.1,5.05,2.1C191.34,33.27,193.34,32.13,193.34,32.13z"/>
		<path d="M218.18,35.03c0.17,0.42-0.7,1.24-1.95,1.83l-3.2,1.5c-1.25,0.59-2.63,0.71-3.06,0.28c-0.44-0.43-2.13-1.4-3.34-0.73
			c0,0-0.34,0.19-1.62,0.68c-1.28,0.49-2.39,0.74-3.34,0.74c-1.44,0-2.61-0.51-3.52-1.52c-0.91-1.02-1.37-2.31-1.37-3.89
			c0-0.7,0.08-1.46,0.24-2.29c0.16-0.82,0.16-0.82,0.16-0.82c0.25-0.63,1.56-1.33,2.92-1.54l6.2-0.99c1.36-0.22,2.5-0.74,2.52-1.16
			c0.03-0.42-0.05-1.88-0.18-3.26c0,0-0.03-0.32-0.77-1.21c-0.74-0.89-1.93-1.34-3.58-1.34c-0.74,0-1.51,0.08-2.31,0.24
			c-0.81,0.16-0.81,0.16-0.81,0.16c-0.68,0.25-1.43,0.85-1.66,1.34s-0.74,0.78-1.13,0.63c-0.39-0.14-0.37-1.34,0.05-2.65l0.89-2.8
			c0.42-1.31,1.83-2.74,3.14-3.17c0,0,2.88-0.95,5.3-0.95c2.49,0,4.52,0.66,6.1,1.97c1.58,1.31,1.97,3.71,1.97,3.71
			c0.22,1.36,0.39,2.71,0.37,3s-0.11,1.65-0.21,3.02l-0.16,2.1c-0.1,1.37-0.21,2.92-0.24,3.44s-0.03,1.45,0,2.08c0,0,0,0,0.11,0.37
			c0.11,0.37,0.11,0.37,0.11,0.37c0.23,0.42,0.79,0.62,1.24,0.45C217.5,34.41,218.01,34.61,218.18,35.03z M207.12,35.53
			c0.76-0.35,1.37-0.88,1.36-1.18c-0.01-0.3-0.01-0.81,0-1.13c0.01-0.32,0.06-1.25,0.11-2.08s-0.83-1.29-1.95-1.02
			c-1.11,0.26-2.12,0.95-2.23,1.54c0,0,0,0,0,0.77c0,1.05,0.21,1.83,0.63,2.34c0.42,0.51,0.93,0.76,1.52,0.76
			C207.12,35.53,207.12,35.53,207.12,35.53z"/>
		<path d="M229.64,21.41c-0.29,0.36-0.54,1.78-0.56,3.16l-0.14,9.77c-0.02,1.38,1.02,2.54,2.3,2.58s2.34,0.42,2.34,0.84
			c0,0.42-1.13,0.76-2.5,0.76h-9.03c-1.38,0-2.5-0.34-2.5-0.76c0-0.42,0.44-0.8,0.97-0.84c0.53-0.04,0.96-1.21,0.95-2.58
			l-0.12-13.81c-0.01-1.38-0.47-2.4-1.02-2.27c-0.55,0.13-1.12-0.12-1.26-0.55c-0.14-0.43,0.81-1.12,2.13-1.53l3.52-1.09
			c1.32-0.41,2.73,0.33,3.15,1.64l0.27,0.85c0.42,1.31,1.3,1.45,1.97,0.3c0.67-1.15,3.34-3.57,4.28-3.8c0,0,0,0,1.09,0
			c1.47,0,1.75,0.08,1.75,0.08c1.32,0.39,2.13,1.8,1.8,3.14l-0.49,1.97c-0.33,1.34-1.64,2.25-2.91,2.03c0,0,0,0-1.58-0.18
			c-1.58-0.18-1.58-0.18-1.58-0.18C231.21,20.84,229.93,21.05,229.64,21.41z"/>
		<path d="M261.84,14.87c1.38,0,2.5,0.38,2.5,0.84s-0.34,0.85-0.76,0.87c-0.42,0.01-1.21,1.06-1.75,2.33l-4.7,10.91
			c-0.54,1.26-1.45,3.33-2.02,4.58c0,0-2.68,4.72-4.63,8.29c-1.95,3.57-3.88,6.44-3.88,6.44c-0.77,1.14-2.22,1.3-3.22,0.35
			l-2.57-2.44c-1-0.95-0.86-2.33,0.3-3.06l7.58-4.07c1.09-0.85,1.32-1.5,0.53-1.46s-1.84-0.98-2.31-2.27l-6.36-17.23
			c-0.48-1.29-1.21-2.36-1.63-2.37c-0.42-0.01-0.76-0.4-0.76-0.87s1.13-0.84,2.5-0.84h7.45c1.38,0,2.5,0.38,2.5,0.84
			s-0.5,0.85-1.1,0.87c-0.61,0.01-0.78,1.11-0.39,2.43l3.36,11.29c0.39,1.32,1.01,1.31,1.36-0.02l3.02-11.25
			c0.36-1.33,0.15-2.43-0.46-2.44c-0.61-0.01-1.1-0.4-1.1-0.87s1.13-0.84,2.5-0.84H261.84z"/>
	</g>
</g>
</svg>
