<?xml version="1.0" encoding="utf-8"?>
<!-- Generator: Adobe Illustrator 23.0.1, SVG Export Plug-In . SVG Version: 6.00 Build 0)  -->
<svg version="1.1" width='150px' height='150px' xmlns="http://www.w3.org/2000/svg" xmlns:xlink="http://www.w3.org/1999/xlink" x="0px" y="0px"
	 viewBox="0 0 150 150" style="enable-background:new 0 0 150 150;" xml:space="preserve">
<style type="text/css">
	.st0{fill:#DADEE2;}
</style>
<g>
	<path class="st0" d="M42.13,70.03c0.13,0.75,0.84,1.25,1.59,1.12s1.25-0.84,1.12-1.59l-1.04-5.99L46,62.23
		c1.31-0.8,1.73-2.51,0.93-3.82c-0.8-1.31-2.51-1.73-3.82-0.93l-0.34,0.21l-0.28-1.63c-0.13-0.75-0.84-1.25-1.59-1.12
		s-1.25,0.84-1.12,1.59L42.13,70.03z"/>
	<polygon class="st0" points="0,1.46 0.48,0 0,0 	"/>
	<path class="st0" d="M35.09,132.52c0.03-0.02,0.06-0.04,0.09-0.07c1.1-0.94,2.08-1.94,2.91-2.98c4.26-5.3,5.05-11.66,5.08-11.92
		c0.06-0.51-0.15-1.02-0.55-1.34c-0.4-0.32-0.94-0.42-1.43-0.25c-0.25,0.09-6.29,2.22-10.55,7.52c-0.84,1.04-1.61,2.22-2.29,3.5
		c0,0,0,0,0,0c-0.81-0.4-1.65-0.75-2.53-1.05c-0.87-0.29-1.76-0.51-2.65-0.68c0,0,0,0,0,0c0.22-1.44,0.31-2.84,0.26-4.17
		c-0.24-6.8-3.8-12.12-3.95-12.34c-0.29-0.43-0.77-0.68-1.29-0.66c-0.52,0.02-0.99,0.3-1.24,0.75c-0.14,0.23-3.31,5.79-3.07,12.59
		c0.05,1.33,0.23,2.72,0.55,4.13c0.01,0.03,0.02,0.07,0.03,0.1c-1.19,0.33-2.36,0.78-3.5,1.35c-4.65,2.33-8.11,6.33-9.75,11.26
		L0,141.95V150h0.49l3.58-10.78c1.39-4.17,4.32-7.56,8.25-9.53c3.93-1.97,8.4-2.29,12.57-0.9c8.62,2.86,13.3,12.2,10.43,20.82
		l-0.13,0.4h3.14C40.19,143.8,38.8,137.34,35.09,132.52z M20.22,124.81c-0.01,0.05,0,0.09-0.01,0.14c-0.94-0.03-1.89,0.02-2.82,0.13
		c-0.01-0.06-0.01-0.12-0.02-0.18c-0.28-1.25-0.44-2.42-0.48-3.57c-0.12-3.3,0.72-6.33,1.49-8.36c0.91,1.98,1.96,4.94,2.07,8.24
		C20.49,122.36,20.41,123.54,20.22,124.81z M33.24,130.17c-0.05,0.04-0.09,0.09-0.13,0.14c-0.68-0.65-1.41-1.25-2.18-1.8
		c0.03-0.04,0.06-0.08,0.08-0.12c0.6-1.13,1.25-2.12,1.98-3.03c2.07-2.58,4.68-4.32,6.59-5.36c-0.6,2.09-1.74,5.01-3.82,7.59
		C35.04,128.5,34.21,129.34,33.24,130.17z"/>
	<path class="st0" d="M25.78,148.47c0.47-0.68,0.31-1.61-0.37-2.09c-0.68-0.47-1.61-0.31-2.09,0.37c-1.1,1.57-3.13,2.24-4.95,1.64
		c-1.82-0.6-3.05-2.36-2.99-4.28c0.03-0.83-0.62-1.52-1.45-1.55c-0.82-0.04-1.52,0.62-1.55,1.45c-0.07,2.35,1.01,4.56,2.78,5.98
		h9.15C24.87,149.57,25.37,149.06,25.78,148.47z"/>
	<path class="st0" d="M30.63,61.18c0.13,0.73,0.76,1.24,1.48,1.24c0.09,0,0.17-0.01,0.26-0.02c0.82-0.14,1.36-0.92,1.22-1.73
		l-0.91-5.23c-0.14-0.82-0.92-1.36-1.73-1.22c-0.82,0.14-1.36,0.92-1.22,1.73L30.63,61.18z"/>
	<path class="st0" d="M33.08,66.55c-0.82,0.14-1.36,0.92-1.22,1.73l0.91,5.23c0.13,0.73,0.76,1.24,1.48,1.24
		c0.09,0,0.17-0.01,0.26-0.02c0.82-0.14,1.36-0.92,1.22-1.73l-0.91-5.23C34.68,66.95,33.9,66.41,33.08,66.55z"/>
	<path class="st0" d="M16.67,140.16c1.51,0.5,3.13-0.31,3.63-1.82c0.5-1.51-0.31-3.13-1.82-3.63c-1.51-0.5-3.13,0.31-3.63,1.82
		C14.35,138.03,15.17,139.66,16.67,140.16z"/>
	<path class="st0" d="M19.72,1.61c1.66,0,3.29-0.57,4.6-1.61h-9.15c0.66,0.53,1.42,0.96,2.26,1.23C18.18,1.48,18.95,1.61,19.72,1.61
		z"/>
	<path class="st0" d="M30.17,15.08c-0.98-0.35-1.21-1.04-1.52-2.6c-0.27-1.35-0.64-3.21-2.6-3.86c-0.38-0.12-0.73-0.18-1.07-0.18
		c-1.57,0-2.79,1.17-3.72,2.06c-0.65,0.62-1.38,1.32-1.77,1.2c-0.39-0.13-0.55-1.13-0.7-2.02C18.53,8.13,18.18,6,16.07,5.3
		c-2.1-0.7-3.66,0.79-4.79,1.88c-0.65,0.62-1.39,1.33-1.77,1.2c-0.39-0.13-0.55-1.13-0.7-2.02C8.56,4.81,8.21,2.69,6.1,1.99
		C4.14,1.33,2.73,2.6,1.71,3.52C1,4.16,0.5,4.56,0,4.72v3.05C1.66,7.6,2.85,6.53,3.72,5.75c0.8-0.72,1.18-1.01,1.44-0.92
		c0.39,0.13,0.55,1.13,0.7,2.02c0.26,1.55,0.61,3.68,2.71,4.38c2.11,0.7,3.66-0.79,4.79-1.88c0.65-0.62,1.38-1.32,1.77-1.2
		c0.39,0.13,0.55,1.13,0.7,2.02c0.26,1.55,0.61,3.68,2.71,4.38c2.11,0.7,3.66-0.79,4.79-1.88c0.65-0.62,1.38-1.33,1.77-1.2
		c0.26,0.09,0.39,0.54,0.6,1.6c0.31,1.58,0.79,3.96,3.58,4.89c0.38,0.13,0.72,0.17,1.03,0.17c0.52,0,0.93-0.14,1.23-0.29
		c1.01-0.51,1.37-1.49,1.43-1.67l5.19-15.61c0.06-0.18,0.11-0.37,0.16-0.55h-3.14L30.17,15.08z"/>
	<path class="st0" d="M26.47,137.36c-1.51-0.5-3.13,0.31-3.63,1.82c-0.5,1.51,0.31,3.13,1.82,3.63c1.51,0.5,3.13-0.31,3.63-1.82
		C28.79,139.49,27.98,137.86,26.47,137.36z"/>
	<path class="st0" d="M26.05,84.48c0.22,0,0.44-0.02,0.66-0.06l28.78-5c2.09-0.36,3.5-2.36,3.14-4.46l-5-28.78
		c-0.36-2.09-2.37-3.5-4.46-3.14l-28.78,5c-2.09,0.36-3.5,2.36-3.14,4.46l5,28.78C22.58,83.15,24.21,84.48,26.05,84.48z M20.91,51
		l28.77-5c0.05-0.01,0.09-0.01,0.14-0.01c0.41,0,0.78,0.3,0.85,0.71l5,28.78c0.08,0.46-0.24,0.91-0.7,0.99l-28.78,5
		c-0.45,0.08-0.91-0.24-0.99-0.7l-5-28.78C20.13,51.53,20.45,51.08,20.91,51z"/>
	<path class="st0" d="M99.45,32.09c0.1,0,0.21-0.01,0.32-0.03c0.81-0.17,1.33-0.97,1.15-1.78c-0.4-1.87,0.49-3.82,2.17-4.74
		c1.68-0.92,3.81-0.62,5.17,0.73c0.59,0.58,1.54,0.58,2.12-0.01c0.58-0.59,0.58-1.54-0.01-2.12c-2.29-2.27-5.88-2.78-8.72-1.23
		c-2.84,1.55-4.35,4.84-3.67,8C98.13,31.61,98.75,32.09,99.45,32.09z"/>
	<path class="st0" d="M90.44,126.18c1.68,0.43,3.38,0.64,5.07,0.64c3.62,0,7.19-0.97,10.39-2.87c0.12-0.07,0.24-0.15,0.37-0.23
		l-0.2,0.35c4.55,2.67,9.54,4.01,14.9,4.01c1.55,0,3.13-0.11,4.74-0.34c0.72-0.1,1.26-0.71,1.29-1.43c0.03-0.73-0.48-1.37-1.19-1.52
		c-0.07-0.02-7.04-1.56-12.93-7.69c1.06-1.73,1.87-3.63,2.39-5.66c0.6-2.36,0.76-4.74,0.53-7.03c8.25-2.72,15.3-0.69,15.37-0.67
		c0.7,0.21,1.45-0.11,1.77-0.76c0.33-0.65,0.14-1.45-0.45-1.88c-5.96-4.42-12.8-6.53-19.78-6.14l0.03,0.58
		c-2.69-4.28-6.95-7.58-12.23-8.92c-5.29-1.35-10.78-0.55-15.46,2.23c-4.69,2.78-8.01,7.23-9.36,12.51
		C72.92,112.27,79.54,123.4,90.44,126.18z M124.58,99.97c-2.67,0.01-5.87,0.38-9.3,1.45c-0.31-1.21-0.72-2.38-1.24-3.5
		C117.69,97.86,121.21,98.54,124.58,99.97z M118.22,124.94c-3.4-0.34-6.62-1.31-9.62-2.9c0.9-0.76,1.74-1.58,2.49-2.47
		C113.48,121.97,115.99,123.71,118.22,124.94z M78.61,102.1c1.15-4.51,3.98-8.3,7.98-10.67c2.73-1.62,5.77-2.45,8.86-2.45
		c1.44,0,2.89,0.18,4.33,0.55c9.3,2.37,14.95,11.87,12.58,21.17v0c-1.15,4.51-3.98,8.3-7.98,10.67c-4,2.38-8.68,3.05-13.19,1.9
		c-4.51-1.15-8.3-3.98-10.67-7.98S77.46,106.61,78.61,102.1z"/>
	<path class="st0" d="M88.94,21.55c-0.24,0.13-0.66-0.08-1.58-0.65c-1.37-0.84-3.43-2.12-6.02-0.71c-0.94,0.51-1.31,1.22-1.46,1.73
		c-0.31,1.09,0.15,2.02,0.25,2.18l7.89,14.44c2.49,4.56,6.62,7.88,11.61,9.34c1.22,0.36,2.45,0.58,3.68,0.7
		c0,0.04-0.01,0.07-0.02,0.11c-0.06,1.47,0,2.83,0.19,4.16c0.98,6.73,5.09,11.64,5.27,11.84c0.29,0.34,0.71,0.53,1.14,0.53
		c0.07,0,0.14-0.01,0.22-0.02c0.51-0.07,0.95-0.41,1.16-0.88c0.11-0.25,2.66-6.12,1.68-12.85c-0.19-1.34-0.52-2.66-1-4.06
		c0,0,0,0,0,0c0.85-0.32,1.68-0.7,2.49-1.14c0.81-0.44,1.58-0.94,2.3-1.48c0,0,0,0,0,0c0.9,1.14,1.87,2.16,2.88,3.03
		c5.14,4.46,11.46,5.48,11.73,5.52c0.08,0.01,0.15,0.02,0.23,0.02c0.43,0,0.85-0.19,1.13-0.52c0.34-0.39,0.45-0.93,0.3-1.42
		c-0.08-0.26-1.99-6.37-7.13-10.83c-1-0.87-2.15-1.68-3.4-2.41c-0.03-0.02-0.07-0.03-0.1-0.05c2.87-5.56,3.02-12.4-0.2-18.29
		l-7.89-14.43c-0.1-0.18-0.62-1.07-1.71-1.39c-0.51-0.15-1.31-0.22-2.24,0.29c-2.58,1.41-2.62,3.84-2.65,5.45
		c-0.02,1.08-0.06,1.55-0.31,1.68c-0.36,0.2-1.21-0.37-1.95-0.86c-1.31-0.87-3.1-2.06-5.05-0.99c-1.95,1.06-1.91,3.22-1.89,4.79
		c0.01,0.9,0.03,1.91-0.33,2.11c-0.35,0.19-1.2-0.37-1.95-0.86c-1.31-0.87-3.11-2.06-5.05-0.99c-1.95,1.06-1.91,3.22-1.89,4.79
		C89.28,20.34,89.29,21.36,88.94,21.55z M109.41,60.4c-1.12-1.86-2.48-4.68-2.95-7.97c-0.17-1.14-0.22-2.32-0.17-3.6
		c0-0.06-0.01-0.12-0.01-0.18c0.94-0.06,1.88-0.19,2.8-0.38c0.01,0.05,0.02,0.1,0.03,0.14c0.42,1.21,0.7,2.36,0.87,3.51
		C110.46,55.19,109.95,58.29,109.41,60.4z M123.91,42.89c2.5,2.16,4.14,4.84,5.11,6.79c-2.07-0.68-4.95-1.93-7.44-4.09
		c-0.87-0.75-1.7-1.63-2.49-2.63c-0.03-0.04-0.07-0.07-0.1-0.11c0.66-0.68,1.27-1.4,1.82-2.16c0.05,0.04,0.1,0.08,0.16,0.11
		C122.08,41.45,123.04,42.13,123.91,42.89z M90.37,24.19c1.95-1.06,1.91-3.22,1.89-4.79c-0.01-0.9-0.03-1.91,0.33-2.11
		c0.35-0.2,1.2,0.37,1.95,0.86c1.31,0.87,3.1,2.06,5.05,0.99c1.95-1.06,1.91-3.22,1.89-4.79c-0.01-0.9-0.03-1.91,0.33-2.11
		c0.36-0.2,1.21,0.37,1.95,0.86c1.31,0.87,3.1,2.06,5.05,0.99c1.81-0.99,1.84-2.88,1.87-4.26c0.03-1.6,0.13-2.32,1.04-2.84
		l7.82,14.31c4.36,7.97,1.42,17.99-6.55,22.34c-3.86,2.11-8.31,2.59-12.53,1.35c-4.22-1.24-7.71-4.04-9.82-7.9L82.84,22.8
		c0.93-0.48,1.59-0.18,2.94,0.66C86.95,24.18,88.56,25.18,90.37,24.19z"/>
	<path class="st0" d="M96.18,115.73c0.26,0,0.52-0.07,0.76-0.21l1.53-0.91l0.81,1.36c0.28,0.47,0.78,0.73,1.29,0.73
		c0.26,0,0.52-0.07,0.76-0.21c0.71-0.42,0.95-1.34,0.52-2.06l-0.81-1.36l1.36-0.81c0.71-0.42,0.95-1.34,0.52-2.06
		c-0.42-0.71-1.34-0.95-2.06-0.52l-1.36,0.81l-0.91-1.53c-0.42-0.71-1.34-0.95-2.06-0.52c-0.71,0.42-0.95,1.34-0.52,2.06l0.91,1.53
		l-1.53,0.91c-0.71,0.42-0.95,1.34-0.52,2.06C95.17,115.46,95.67,115.73,96.18,115.73z"/>
	<path class="st0" d="M87.66,112.49c-0.21,0.82,0.29,1.66,1.11,1.87c0.82,0.21,1.66-0.29,1.87-1.11l3.79-14.86
		c0.21-0.82-0.29-1.66-1.11-1.87c-0.82-0.21-1.66,0.29-1.87,1.11l-0.43,1.71l-4.38,0.6l3.56,2.62l-1.3,5.12l-4.38,0.6l3.56,2.62
		L87.66,112.49z"/>
	<path class="st0" d="M98.72,105.76c0.26,0,0.52-0.07,0.76-0.21l1.53-0.91l0.81,1.36c0.28,0.47,0.78,0.73,1.29,0.73
		c0.26,0,0.52-0.07,0.76-0.21c0.71-0.42,0.95-1.34,0.52-2.06l-0.81-1.36l1.36-0.81c0.71-0.42,0.95-1.34,0.52-2.06
		c-0.42-0.71-1.34-0.95-2.06-0.52l-1.36,0.81L101.15,99c-0.42-0.71-1.34-0.95-2.06-0.52c-0.71,0.42-0.95,1.34-0.52,2.06l0.91,1.53
		l-1.53,0.91c-0.71,0.42-0.95,1.34-0.52,2.06C97.71,105.49,98.21,105.76,98.72,105.76z"/>
	<path class="st0" d="M109.13,33.8c0.76,1.39,2.51,1.9,3.9,1.14c1.39-0.76,1.9-2.51,1.14-3.9c-0.76-1.39-2.51-1.9-3.9-1.14
		C108.88,30.66,108.37,32.41,109.13,33.8z"/>
	<path class="st0" d="M146.18,6.08c0.24,0.47,0.73,1.11,1.74,1.44c0.77,0.25,1.45,0.31,2.08,0.25V4.72c-0.34,0.1-0.67,0.1-1.08-0.02
		L150,1.46V0h-2.68l-1.29,3.88C145.97,4.07,145.68,5.07,146.18,6.08z"/>
	<polygon class="st0" points="150,150 150,141.95 147.32,150 	"/>
	<path class="st0" d="M102.89,33.94c-1.39,0.76-1.9,2.51-1.14,3.9c0.76,1.39,2.51,1.9,3.9,1.14c1.39-0.76,1.9-2.51,1.14-3.9
		C106.03,33.69,104.28,33.17,102.89,33.94z"/>
</g>
</svg>
